# xmcd
#
# Track frame offsets: 
#        150
#        18627
#        35543
#        51433
#        71162
#        90967
#        118117
#        133046
#        149297
#        165329
#        185167
#        208891
#        228101
#
# Disc length: 3422 seconds
#
# Revision: 0
# Processed by: cddbd v1.5.1PL2 Copyright (c) Steve Scherf et al.
# Submitted via: ExactAudioCopy v0.95a5
#
DISCID=bc0d5c0d
DTITLE=Eddie Shaw  - Four Decades Of Eddie Shaw
DYEAR=2005
DGENRE=Blues
TTITLE0=Back Door Wolf
TTITLE1=Sitting On Top Of The World
TTITLE2=My Baby's So Ugly
TTITLE3=Good Timin' Twins
TTITLE4=Delta Bound
TTITLE5=Blues Dues
TTITLE6=Motel Six
TTITLE7=Lick Skillet Mississippi
TTITLE8=Greedy Man
TTITLE9=Casino Blues
TTITLE10=Wine Head Hole
TTITLE11=Come Home Baby
TTITLE12=Mrs. Edward G. Robinson
EXTD=
EXTT0=
EXTT1=
EXTT2=
EXTT3=
EXTT4=
EXTT5=
EXTT6=
EXTT7=
EXTT8=
EXTT9=
EXTT10=
EXTT11=
EXTT12=
PLAYORDER=
